<?xml version="1.0" encoding="UTF-8" standalone="no"?>
<!-- Created with Inkscape (http://www.inkscape.org/) -->

<svg
   xmlns:dc="http://purl.org/dc/elements/1.1/"
   xmlns:cc="http://creativecommons.org/ns#"
   xmlns:rdf="http://www.w3.org/1999/02/22-rdf-syntax-ns#"
   xmlns:svg="http://www.w3.org/2000/svg"
   xmlns="http://www.w3.org/2000/svg"
   xmlns:xlink="http://www.w3.org/1999/xlink"
   xmlns:sodipodi="http://sodipodi.sourceforge.net/DTD/sodipodi-0.dtd"
   xmlns:inkscape="http://www.inkscape.org/namespaces/inkscape"
   width="542.39984"
   height="500"
   viewBox="0 0 143.50996 132.29167"
   version="1.1"
   id="svg8"
   sodipodi:docname="stemma.svg"
   inkscape:version="0.92.3 (2405546, 2018-03-11)">
  <defs
     id="defs2">
    <linearGradient
       inkscape:collect="always"
       id="linearGradient2426">
      <stop
         id="stop2424"
         offset="0"
         style="stop-color:#0173bf;stop-opacity:1" />
      <stop
         id="stop2422"
         offset="1"
         style="stop-color:#49c1f1;stop-opacity:1;" />
    </linearGradient>
    <linearGradient
       inkscape:collect="always"
       xlink:href="#linearGradient2426"
       id="linearGradient2428"
       x1="94.905983"
       y1="37.605812"
       x2="95.511299"
       y2="195.00597"
       gradientUnits="userSpaceOnUse"
       gradientTransform="matrix(0.8364622,0,0,0.8364622,11.793685,148.42036)" />
  </defs>
  <sodipodi:namedview
     id="base"
     pagecolor="#ffffff"
     bordercolor="#666666"
     borderopacity="1.0"
     inkscape:pageopacity="0.0"
     inkscape:pageshadow="2"
     inkscape:zoom="0.98994949"
     inkscape:cx="522.15376"
     inkscape:cy="369.55133"
     inkscape:document-units="mm"
     inkscape:current-layer="layer1"
     showgrid="false"
     units="px"
     fit-margin-top="0"
     fit-margin-left="-2.7755576e-17"
     fit-margin-right="-2.7755576e-17"
     fit-margin-bottom="0"
     inkscape:window-width="1309"
     inkscape:window-height="713"
     inkscape:window-x="57"
     inkscape:window-y="27"
     inkscape:window-maximized="1" />
  <metadata
     id="metadata5">
    <rdf:RDF>
      <cc:Work
         rdf:about="">
        <dc:format>image/svg+xml</dc:format>
        <dc:type
           rdf:resource="http://purl.org/dc/dcmitype/StillImage" />
        <dc:title></dc:title>
      </cc:Work>
    </rdf:RDF>
  </metadata>
  <g
     inkscape:label="Livello 1"
     inkscape:groupmode="layer"
     id="layer1"
     transform="translate(-20.168849,-179.2438)">
    <path
       inkscape:connector-curvature="0"
       id="path840"
       d="M 75.107575,286.76383 58.529872,261.9921 v -1.88228 -1.88229 l 8.00447,-12.31638 8.004474,-12.31639 0.331685,0.10072 0.331687,0.10072 5.952351,9.8706 5.952352,9.87061 0.02317,0.22132 0.02317,0.22131 h -0.30288 -0.302876 l -5.399623,-3.39348 -5.399621,-3.39348 -0.42052,8.4e-4 -0.42052,8.4e-4 -4.204965,6.17684 -4.204965,6.17686 v 0.47618 0.47617 l 10.401756,16.06716 10.401758,16.06717 2.116508,3.32032 2.116509,3.32032 h 0.351665 0.351666 l 8.977757,-13.86901 8.97776,-13.86902 3.67718,-5.63765 3.67717,-5.63791 v -0.21095 -0.21096 l -4.30983,-6.32365 -4.30982,-6.32365 h -0.4161 -0.41609 l -5.44025,3.42283 -5.440241,3.42283 -0.308789,-0.10312 -0.30878,-0.10312 6.06384,-10.10667 6.06384,-10.10667 h 0.28985 0.28985 l 2.45116,3.76234 2.45114,3.76233 1.62289,2.50823 1.6229,2.50823 3.94156,6.04924 3.94156,6.04925 0.12262,1.66693 0.12261,1.66693 -16.64697,24.8712 -16.646981,24.87119 -0.300808,0.10027 -0.300809,0.10027 z m -27.05323,-46.53291 -10.62307,-12.56522 -8.629113,-10.22833 -8.629113,-10.22834 -0.0021,-0.25525 -0.0021,-0.25525 0.719415,0.47138 0.719412,0.47138 10.862685,8.47363 10.862681,8.47364 10.770612,8.38303 10.770611,8.38302 0.521888,0.49846 0.52189,0.49848 -3.222224,5.1503 -3.222225,5.15031 -0.398058,0.072 -0.398061,0.072 -10.623069,-12.56523 z m 75.357305,10.86946 -1.06978,-1.69416 -2.12152,-3.33269 -2.12153,-3.3327 0.0929,-0.41234 0.0929,-0.41233 12.39359,-9.65371 12.39357,-9.65371 6.04925,-4.73607 6.04925,-4.73606 4.11874,-3.17297 4.11874,-3.17297 0.13551,0.13552 0.13553,0.13553 -1.00433,1.254 -1.00434,1.25399 -10.47951,12.4018 -10.47952,12.40177 -7.80071,9.21321 -7.80072,9.21321 -0.31413,-0.002 -0.31412,-0.003 -1.06978,-1.69417 z m -36.200912,-9.14546 -2.155546,-1.99143 -5.000274,-29.88557 -5.000272,-29.88556 v -0.43445 -0.43444 H 75.309 75.563355 l 4.983409,3.76234 4.983408,3.76233 0.355941,4.42628 0.355941,4.42628 1.200509,15.34443 1.200508,15.34444 0.582922,7.38606 0.582914,7.38606 v 1.39272 1.39273 l -0.221312,-2.9e-4 -0.221311,-2.9e-4 -2.155546,-1.99144 z m 6.730509,1.18074 8.37e-4,-0.81148 0.728926,-9.2952 0.728927,-9.29517 0.458314,-5.9017 0.458315,-5.90171 0.717024,-9.14765 0.717032,-9.14765 0.17615,-2.80331 0.176142,-2.8033 0.128356,-0.6287 0.128346,-0.62868 5.029024,-3.76365 5.02902,-3.76366 0.20079,0.20079 0.20078,0.20078 -1.53301,9.35556 -1.53303,9.35554 -3.39219,20.36089 -3.392188,20.36088 -0.227602,0.65056 -0.227601,0.65058 -2.035598,1.78388 -2.035597,1.78388 h -0.251315 -0.251307 l 8.36e-4,-0.81148 z m -27.54016,-6.91806 -1.325265,-2.4509 -4.489991,-8.55747 -4.489988,-8.55747 -2.357716,-4.51553 -2.357717,-4.51552 0.155008,-0.15501 0.155008,-0.15501 1.276159,1.12951 1.276158,1.12951 7.680942,6.9345 7.68094,6.93452 2.429927,2.18141 2.429923,2.18142 v 0.49342 0.49342 l -3.045938,4.83234 -3.045938,4.83236 -0.323121,0.1077 -0.323121,0.1077 z m 46.022243,-2.61608 -3.1732,-5.04487 0.091,-0.40145 0.091,-0.40144 3.70612,-3.33786 3.70612,-3.33786 7.64421,-6.89208 7.64422,-6.89207 0.10031,0.30095 0.10032,0.30096 -6.64349,12.64038 -6.64351,12.64035 -1.41367,2.63663 -1.41367,2.63663 -0.31125,0.0983 -0.31126,0.0983 z"
       style="fill:url(#linearGradient2428);fill-opacity:1;stroke-width:0.29508528" />
    <path
       style="fill:#000000;stroke-width:0.35277778"
       d=""
       id="path828"
       inkscape:connector-curvature="0" />
    <path
       style="fill:#000000;stroke-width:0.35277778"
       d=""
       id="path826"
       inkscape:connector-curvature="0" />
  </g>
</svg>
